<svg width="66" height="66" viewBox="0 0 66 66" fill="none" xmlns="http://www.w3.org/2000/svg">
<rect width="66" height="66" rx="15" fill="#FFEBFD"/>
<mask id="mask0_1517_1376" style="mask-type:luminance" maskUnits="userSpaceOnUse" x="21" y="11" width="26" height="45">
<path d="M21 55.4214H46.0523V11H21V55.4214Z" fill="white"/>
</mask>
<g mask="url(#mask0_1517_1376)">
<path d="M43.6557 43.5055V19.4736H23.4224V49.8792H43.6557V43.5055ZM37.4685 14.5124H29.6055V16.9313H37.4685V14.5124ZM29.2218 52.9874H37.857L37.8546 52.0463H29.2218V52.9874ZM42.8484 55.3179H24.2267C22.4463 55.3179 21.0078 53.8739 21.0078 52.0941V14.2982C21.0078 12.5238 22.4463 11.078 24.2267 11.078H42.8484C44.6264 11.078 46.0704 12.522 46.0704 14.2982V52.0941C46.0698 53.8739 44.6264 55.3179 42.8484 55.3179Z" fill="#87127C"/>
</g>
</svg>
