<svg width="66" height="66" viewBox="0 0 66 66" fill="none" xmlns="http://www.w3.org/2000/svg">
<rect width="66" height="66" rx="15" fill="#FFEBFD"/>
<mask id="mask0_1517_1377" style="mask-type:luminance" maskUnits="userSpaceOnUse" x="20" y="29" width="25" height="24">
<path d="M20.9231 29.2461H44.1555V52.8104H20.9231V29.2461Z" fill="white"/>
</mask>
<g mask="url(#mask0_1517_1377)">
<path d="M40.6835 38.005H35.8322L36.8435 34.6446C36.9212 34.3957 36.9731 34.1416 36.999 33.8823C37.0276 33.6256 37.0276 33.3663 37.0042 33.107C36.9809 32.8477 36.9342 32.5936 36.8616 32.3421C36.789 32.0932 36.6931 31.852 36.5738 31.6213C36.4519 31.3905 36.3119 31.1727 36.1511 30.9679C35.9878 30.7656 35.8089 30.5789 35.6118 30.4104C35.4122 30.2418 35.1996 30.094 34.974 29.967C34.7458 29.8373 34.5098 29.7336 34.2609 29.6532C34.1183 29.6066 33.9731 29.5729 33.8227 29.5573C33.6723 29.5392 33.5219 29.5392 33.3716 29.5521C33.2212 29.5651 33.0734 29.5962 32.9308 29.6403C32.7856 29.6844 32.6481 29.744 32.5159 29.8166C32.3837 29.8892 32.2592 29.9748 32.1451 30.0733C32.031 30.1718 31.9273 30.2807 31.8366 30.4C31.7432 30.5193 31.6654 30.6489 31.6006 30.7838C31.5332 30.9212 31.4839 31.0612 31.4476 31.209L31.292 31.8598C30.6931 34.2582 29.5237 36.3326 27.7761 38.0828L26.8919 38.9514C26.6637 38.6662 26.3837 38.4406 26.0544 38.2798C25.7251 38.1191 25.375 38.0387 25.0094 38.0361H23.8737C23.5548 38.0361 23.2488 38.0957 22.9533 38.2176C22.6577 38.3369 22.3958 38.5106 22.1702 38.7336C21.942 38.9592 21.7657 39.2185 21.6412 39.5115C21.5168 39.8045 21.452 40.1104 21.4468 40.4294V50.4458C21.4468 50.7673 21.509 51.0758 21.6335 51.374C21.7553 51.6696 21.9317 51.9315 22.1572 52.1597C22.3854 52.3878 22.6473 52.5616 22.9455 52.686C23.2437 52.8079 23.5522 52.8701 23.8737 52.8701H25.0094C25.4347 52.8701 25.8314 52.7638 26.1996 52.5538C26.5678 52.3412 26.8608 52.0534 27.0786 51.6878L27.2964 51.7967C28.7199 52.5097 30.229 52.8675 31.821 52.8701H37.4035C37.8651 52.8727 38.3188 52.8183 38.7674 52.7068C39.216 52.5979 39.6438 52.4319 40.0509 52.2167C40.458 51.9989 40.8313 51.7344 41.1736 51.4233C41.5159 51.1147 41.8141 50.7673 42.0682 50.3835C43.1805 48.7215 43.7354 46.8909 43.7328 44.8918V41.0205C43.7328 40.8209 43.7121 40.6238 43.6732 40.4294C43.6343 40.2323 43.5772 40.043 43.4994 39.8589C43.4243 39.6748 43.3283 39.5011 43.2168 39.3352C43.1053 39.1692 42.9809 39.0162 42.8383 38.8762C42.6956 38.7362 42.5427 38.6117 42.3767 38.5002C42.2082 38.3913 42.0345 38.298 41.8478 38.2254C41.6637 38.1502 41.4744 38.0932 41.2773 38.0569C41.0829 38.018 40.8832 38.0024 40.6835 38.005ZM25.8184 50.4458C25.8184 50.5598 25.7951 50.6713 25.751 50.7777C25.7069 50.884 25.6447 50.9799 25.5617 51.0603C25.4813 51.1433 25.388 51.2055 25.2791 51.2496C25.1728 51.2936 25.0613 51.3144 24.9472 51.3144H23.8737C23.7597 51.3144 23.6482 51.2936 23.5418 51.2496C23.4329 51.2055 23.3396 51.1433 23.2592 51.0603C23.1762 50.9799 23.114 50.884 23.0699 50.7777C23.0259 50.6713 23.0025 50.5598 23.0025 50.4458V40.4294C23.0025 40.3153 23.0259 40.2038 23.0699 40.0975C23.114 39.9886 23.1762 39.8952 23.2592 39.8148C23.3396 39.7319 23.4329 39.6696 23.5418 39.6256C23.6482 39.5815 23.7597 39.5581 23.8737 39.5581H25.0094C25.1183 39.5659 25.2246 39.5944 25.3232 39.6411C25.4217 39.6904 25.5099 39.7552 25.5851 39.8356C25.6603 39.916 25.7173 40.0067 25.7588 40.1104C25.7977 40.2142 25.8184 40.3205 25.8184 40.4294V50.4458ZM42.1459 44.8918C42.1537 46.5901 41.687 48.1459 40.7458 49.559C40.3724 50.1165 39.8901 50.5547 39.2989 50.871C38.7078 51.1873 38.0751 51.3455 37.4035 51.3455H31.821C30.4753 51.3455 29.1996 51.0447 27.9939 50.4458L27.3716 50.1346V40.5849L28.8029 39.1537C29.7596 38.1969 30.5738 37.1312 31.2402 35.954C31.9092 34.7768 32.407 33.5322 32.7389 32.2176L32.8945 31.5824C32.9411 31.4035 33.0448 31.2686 33.2056 31.1779C33.3716 31.1053 33.5375 31.1053 33.7034 31.1779C34.012 31.279 34.2894 31.4372 34.5358 31.6524C34.7821 31.865 34.9792 32.1191 35.1244 32.4095C35.2696 32.7025 35.3551 33.0085 35.3785 33.3352C35.4018 33.6593 35.3603 33.9782 35.2566 34.2868L33.9498 38.6558C33.8772 38.9047 33.9187 39.1329 34.0742 39.3403C34.2272 39.553 34.4346 39.6567 34.6965 39.6515H40.5902C40.7847 39.6515 40.9714 39.6904 41.1503 39.763C41.3292 39.8382 41.4874 39.9445 41.6248 40.0793C41.7622 40.2167 41.8685 40.3749 41.9411 40.5538C42.0163 40.7327 42.0526 40.9194 42.0526 41.1139L42.1459 44.8918Z" fill="#87127C"/>
</g>
<path d="M28.9273 23.0129L28.4295 25.8885C28.3698 26.2152 28.401 26.5315 28.5254 26.8375C28.6473 27.1434 28.8443 27.3924 29.114 27.5842C29.4148 27.8072 29.7519 27.9213 30.1252 27.9265C30.4105 27.9213 30.6801 27.8539 30.9342 27.7243L33.5945 26.3552L36.19 27.7243C36.4805 27.8772 36.7916 27.9421 37.1209 27.9187C37.4476 27.8928 37.7458 27.7813 38.0103 27.5842C38.2773 27.395 38.4718 27.1486 38.5963 26.8453C38.7181 26.5419 38.7518 26.2281 38.6948 25.904L38.2592 23.0129L40.2946 20.9905C40.5358 20.7649 40.6965 20.49 40.7769 20.1711C40.8599 19.8496 40.8495 19.5333 40.7458 19.2169C40.6447 18.9058 40.4657 18.6413 40.2142 18.4287C39.9627 18.2161 39.6723 18.0838 39.3482 18.0372L36.439 17.6171L35.1477 14.9568C34.9999 14.6638 34.7873 14.4304 34.5072 14.2593C34.2272 14.0856 33.9213 14 33.5945 14C33.2652 14 32.9593 14.0856 32.6793 14.2593C32.3992 14.4304 32.1866 14.6638 32.0388 14.9568L30.7475 17.586L27.8383 18.006C27.5142 18.0527 27.2238 18.185 26.9723 18.3976C26.7208 18.6102 26.5418 18.8747 26.4407 19.1858C26.3318 19.5047 26.3163 19.8289 26.3992 20.1556C26.4796 20.4823 26.6456 20.7597 26.8919 20.9905L28.9273 23.0129ZM27.9939 19.5436L31.3076 19.0639C31.4606 19.0717 31.6032 19.0406 31.7354 18.9628C31.8703 18.8876 31.9688 18.7787 32.0388 18.6439L33.5945 15.6413C33.6231 15.5739 33.6749 15.5428 33.7475 15.5428C33.8227 15.5428 33.8746 15.5739 33.9031 15.6413L35.4588 18.6439C35.5807 18.8902 35.7778 19.0302 36.05 19.0639L39.3638 19.5436C39.4338 19.5592 39.4804 19.6007 39.5038 19.6681C39.5349 19.7251 39.5349 19.7822 39.5038 19.8392L37.1079 22.1728C36.9135 22.3673 36.8357 22.6007 36.8746 22.8729L37.4502 26.153C37.4761 26.2333 37.4502 26.2904 37.3724 26.3241C37.3102 26.3708 37.248 26.3708 37.1857 26.3241L34.2298 24.7709C33.9913 24.6361 33.7527 24.6361 33.5168 24.7709L30.5453 26.3241C30.4882 26.3682 30.4312 26.3682 30.3742 26.3241C30.2964 26.2904 30.2704 26.2333 30.2964 26.153L30.872 22.8729C30.9109 22.6007 30.8331 22.3673 30.6386 22.1728L28.2428 19.8392C28.2117 19.7822 28.2117 19.7251 28.2428 19.6681C28.1494 19.6733 28.0872 19.6318 28.0561 19.5436H27.9939Z" fill="#87127C"/>
<mask id="mask1_1517_1377" style="mask-type:luminance" maskUnits="userSpaceOnUse" x="14" y="19" width="13" height="14">
<path d="M14 19.9531H26.8971V32.565H14V19.9531Z" fill="white"/>
</mask>
<g mask="url(#mask1_1517_1377)">
<path d="M23.236 32.2643C23.3527 32.2669 23.4667 32.2565 23.5808 32.2332C23.6949 32.2099 23.8038 32.1736 23.9075 32.1269C24.0138 32.0776 24.1124 32.018 24.2057 31.948C24.2965 31.878 24.382 31.8002 24.4546 31.712C24.5298 31.6213 24.5947 31.5253 24.6465 31.4242C24.701 31.3205 24.7399 31.2142 24.771 31.1001C24.7995 30.9886 24.8151 30.8745 24.8202 30.7578C24.8228 30.6437 24.8125 30.5297 24.7917 30.4156L24.3717 28.0508L26.1141 26.3551C26.3371 26.1502 26.4875 25.9013 26.5653 25.6057C26.6431 25.3127 26.6353 25.0197 26.5419 24.7319C26.4486 24.4415 26.2826 24.2004 26.0493 24.0085C25.8133 23.814 25.5437 23.6999 25.2429 23.6662L22.8626 23.324L21.7891 21.1615C21.6439 20.91 21.4443 20.7103 21.1928 20.5625C20.9387 20.4173 20.6664 20.3447 20.376 20.3447C20.083 20.3447 19.8107 20.4173 19.5566 20.5625C19.3051 20.7103 19.1055 20.91 18.9603 21.1615L17.8868 23.324L15.5065 23.6662C15.2057 23.6999 14.9361 23.814 14.7027 24.0085C14.4668 24.2004 14.3034 24.4415 14.2075 24.7319C14.1141 25.0197 14.1064 25.3127 14.1841 25.6057C14.2619 25.9013 14.4123 26.1502 14.6379 26.3551L16.3622 28.0508L15.9421 30.4156C15.8877 30.7138 15.9188 31.0042 16.0329 31.2868C16.1496 31.5668 16.3311 31.795 16.58 31.9687C16.8237 32.1476 17.096 32.2462 17.3968 32.2669C17.6975 32.2851 17.9802 32.2228 18.2446 32.0776L20.376 30.9601L22.5048 32.0776C22.733 32.2021 22.9767 32.2643 23.236 32.2643ZM20.376 29.311C20.2464 29.311 20.1271 29.3421 20.0182 29.4043L17.4823 30.68L18.0424 27.9108C18.0605 27.623 17.9568 27.3897 17.7312 27.2107L15.7243 25.2064L18.5247 24.8019C18.7943 24.7682 18.9862 24.6282 19.1003 24.3819L20.3916 21.846L21.6491 24.3819C21.7632 24.6282 21.9551 24.7682 22.2247 24.8019L25.0251 25.2531L23.0182 27.2107C22.8237 27.4052 22.7459 27.6386 22.7848 27.9108L23.236 30.7112L20.7338 29.4043C20.6223 29.3421 20.5031 29.311 20.376 29.311Z" fill="#87127C"/>
</g>
<mask id="mask2_1517_1377" style="mask-type:luminance" maskUnits="userSpaceOnUse" x="40" y="19" width="13" height="14">
<path d="M40.1729 19.9531H53V32.565H40.1729V19.9531Z" fill="white"/>
</mask>
<g mask="url(#mask2_1517_1377)">
<path d="M52.9533 24.7397C52.8625 24.4519 52.7043 24.2107 52.4736 24.0163C52.2428 23.8218 51.9783 23.7051 51.6801 23.6662L49.2999 23.324L48.2264 21.1615C48.0812 20.91 47.8815 20.7103 47.63 20.5625C47.3759 20.4173 47.1037 20.3447 46.8107 20.3447C46.5203 20.3447 46.248 20.4173 45.9939 20.5625C45.7424 20.7103 45.5427 20.91 45.3975 21.1615L44.3241 23.324L41.9438 23.6662C41.643 23.6999 41.3733 23.814 41.1374 24.0085C40.904 24.2004 40.7381 24.4415 40.6447 24.7319C40.5514 25.0197 40.5436 25.3127 40.6214 25.6057C40.6992 25.9013 40.8496 26.1502 41.0726 26.3551L42.7994 28.0508L42.3794 30.4156C42.3249 30.7138 42.356 31.0042 42.4701 31.2868C42.5868 31.5668 42.7683 31.795 43.0172 31.9687C43.261 32.1476 43.5332 32.2462 43.834 32.2669C44.1348 32.2851 44.4174 32.2228 44.6819 32.0776L46.8107 30.9601L48.942 32.0776C49.1702 32.2021 49.4139 32.2643 49.6732 32.2643C49.7899 32.2669 49.904 32.2565 50.0181 32.2332C50.1296 32.2099 50.2411 32.1736 50.3448 32.1269C50.4511 32.0776 50.5496 32.018 50.643 31.948C50.7337 31.878 50.8167 31.8002 50.8919 31.712C50.9671 31.6213 51.0293 31.5253 51.0838 31.4242C51.1356 31.3205 51.1771 31.2142 51.2056 31.1001C51.2368 30.9886 51.2523 30.8745 51.2549 30.7578C51.2601 30.6437 51.2497 30.5297 51.229 30.4156L50.8089 28.0508L52.5358 26.3551C52.7562 26.1502 52.904 25.9013 52.9792 25.6083C53.057 25.3153 53.0466 25.0249 52.9533 24.7397ZM49.4554 27.2107C49.261 27.4052 49.1832 27.6386 49.2221 27.9108L49.6732 30.7112L47.1685 29.4043C46.9299 29.2695 46.6914 29.2695 46.4528 29.4043L43.9196 30.68L44.4796 27.9108C44.4978 27.623 44.3941 27.3897 44.1685 27.2107L42.1616 25.2064L44.9619 24.8019C45.2316 24.7682 45.4235 24.6282 45.5375 24.3819L46.8262 21.846L48.0864 24.3819C48.2005 24.6282 48.3923 24.7682 48.662 24.8019L51.4623 25.2531L49.4554 27.2107Z" fill="#87127C"/>
</g>
</svg>
