<svg width="66" height="66" viewBox="0 0 66 66" fill="none" xmlns="http://www.w3.org/2000/svg">
<rect width="66" height="66" rx="15" fill="#FFEBFD"/>
<mask id="mask0_1516_1377" style="mask-type:luminance" maskUnits="userSpaceOnUse" x="13" y="13" width="40" height="40">
<path d="M13.9333 13.9331H52.0667V52.0664H13.9333V13.9331Z" fill="white"/>
</mask>
<g mask="url(#mask0_1516_1377)">
<path d="M46.4835 19.5185C42.8805 15.9155 38.0925 13.9331 33.0011 13.9331C27.9076 13.9331 23.1195 15.9155 19.5187 19.5185C15.9179 23.1193 13.9333 27.9073 13.9333 32.9987C13.9333 38.0922 15.9179 42.8803 19.5187 46.4811C23.1195 50.0819 27.9076 52.0664 33.0011 52.0664C38.0925 52.0664 42.8805 50.0819 46.4835 46.4811C50.0843 42.8803 52.0667 38.0922 52.0667 32.9987C52.0667 27.9073 50.0843 23.1193 46.4835 19.5185ZM44.4058 45.5776V45.2028C44.4058 41.8902 41.7193 39.2058 38.4066 39.2058H28.0094C24.6967 39.2058 22.0102 41.8902 22.0102 45.2028V45.9416C18.3444 42.824 16.0132 38.1789 16.0132 32.9987C16.0132 23.6327 23.633 16.013 33.0011 16.013C42.3671 16.013 49.9868 23.6327 49.9868 32.9987C49.9868 37.9796 47.8311 42.4665 44.4058 45.5776Z" fill="#87127C"/>
</g>
<path d="M39.8993 30.6766C39.8993 31.1316 39.8538 31.5844 39.765 32.0307C39.6762 32.477 39.5462 32.9103 39.3707 33.3306C39.1974 33.7509 38.9829 34.1496 38.7294 34.5287C38.4781 34.9079 38.1899 35.2588 37.8671 35.5795C37.5465 35.9023 37.1955 36.1883 36.8185 36.4418C36.4394 36.6953 36.0385 36.9076 35.6182 37.0831C35.1979 37.2564 34.7646 37.3885 34.3183 37.4774C33.872 37.5662 33.4214 37.6095 32.9664 37.6095C32.5114 37.6095 32.0586 37.5662 31.6123 37.4774C31.166 37.3885 30.7327 37.2564 30.3124 37.0831C29.8921 36.9076 29.4913 36.6953 29.1143 36.4418C28.7351 36.1883 28.3841 35.9023 28.0635 35.5795C27.7407 35.2588 27.4547 34.9079 27.2012 34.5287C26.9477 34.1496 26.7354 33.7509 26.5599 33.3306C26.3866 32.9103 26.2544 32.477 26.1656 32.0307C26.0768 31.5844 26.0334 31.1316 26.0334 30.6766C26.0334 30.2216 26.0768 29.771 26.1656 29.3247C26.2544 28.8784 26.3866 28.4451 26.5599 28.0247C26.7354 27.6044 26.9477 27.2036 27.2012 26.8245C27.4547 26.4475 27.7407 26.0965 28.0635 25.7759C28.3841 25.4531 28.7351 25.1649 29.1143 24.9136C29.4913 24.6601 29.8921 24.4456 30.3124 24.2723C30.7327 24.0968 31.166 23.9668 31.6123 23.878C32.0586 23.7891 32.5114 23.7437 32.9664 23.7437C33.4214 23.7437 33.872 23.7891 34.3183 23.878C34.7646 23.9668 35.1979 24.0968 35.6182 24.2723C36.0385 24.4456 36.4394 24.6601 36.8185 24.9136C37.1955 25.1649 37.5465 25.4531 37.8671 25.7759C38.1899 26.0965 38.4781 26.4475 38.7294 26.8245C38.9829 27.2036 39.1974 27.6044 39.3707 28.0247C39.5462 28.4451 39.6762 28.8784 39.765 29.3247C39.8538 29.771 39.8993 30.2216 39.8993 30.6766Z" fill="#87127C"/>
</svg>
